<mxfile host="app.diagrams.net" modified="2022-01-17T10:46:54.609Z" agent="5.0 (Windows NT 10.0; WOW64) AppleWebKit/537.36 (KHTML, like Gecko) Chrome/94.0.4606.85 YaBrowser/21.11.4.730 Yowser/2.5 Safari/537.36" etag="rcp6lmPCNKTmeOOpQmue" version="16.2.7" type="github" pages="3">
  <diagram id="ysO51sydtNU02jv2edfs" name="Page-1">
    <mxGraphModel dx="1117" dy="717" grid="1" gridSize="10" guides="1" tooltips="1" connect="1" arrows="1" fold="1" page="1" pageScale="1" pageWidth="827" pageHeight="1169" math="0" shadow="0">
      <root>
        <mxCell id="0" />
        <mxCell id="1" parent="0" />
        <mxCell id="BZaMwxJgTfKUHI4_n2Rr-1" value="Directory" style="swimlane;fontStyle=0;childLayout=stackLayout;horizontal=1;startSize=30;horizontalStack=0;resizeParent=1;resizeParentMax=0;resizeLast=0;collapsible=1;marginBottom=0;" parent="1" vertex="1">
          <mxGeometry x="570" y="605" width="140" height="150" as="geometry">
            <mxRectangle x="340" y="200" width="80" height="30" as="alternateBounds" />
          </mxGeometry>
        </mxCell>
        <mxCell id="BZaMwxJgTfKUHI4_n2Rr-28" value="StartDir : string" style="text;strokeColor=none;fillColor=none;align=left;verticalAlign=middle;spacingLeft=4;spacingRight=4;overflow=hidden;points=[[0,0.5],[1,0.5]];portConstraint=eastwest;rotatable=0;" parent="BZaMwxJgTfKUHI4_n2Rr-1" vertex="1">
          <mxGeometry y="30" width="140" height="30" as="geometry" />
        </mxCell>
        <mxCell id="BZaMwxJgTfKUHI4_n2Rr-2" value="File : Directory" style="text;strokeColor=none;fillColor=none;align=left;verticalAlign=middle;spacingLeft=4;spacingRight=4;overflow=hidden;points=[[0,0.5],[1,0.5]];portConstraint=eastwest;rotatable=0;" parent="BZaMwxJgTfKUHI4_n2Rr-1" vertex="1">
          <mxGeometry y="60" width="140" height="30" as="geometry" />
        </mxCell>
        <mxCell id="BZaMwxJgTfKUHI4_n2Rr-3" value="NextFile : Directory" style="text;strokeColor=none;fillColor=none;align=left;verticalAlign=middle;spacingLeft=4;spacingRight=4;overflow=hidden;points=[[0,0.5],[1,0.5]];portConstraint=eastwest;rotatable=0;" parent="BZaMwxJgTfKUHI4_n2Rr-1" vertex="1">
          <mxGeometry y="90" width="140" height="30" as="geometry" />
        </mxCell>
        <mxCell id="BZaMwxJgTfKUHI4_n2Rr-4" value="PrevFile : Directory" style="text;strokeColor=none;fillColor=none;align=left;verticalAlign=middle;spacingLeft=4;spacingRight=4;overflow=hidden;points=[[0,0.5],[1,0.5]];portConstraint=eastwest;rotatable=0;" parent="BZaMwxJgTfKUHI4_n2Rr-1" vertex="1">
          <mxGeometry y="120" width="140" height="30" as="geometry" />
        </mxCell>
        <mxCell id="BZaMwxJgTfKUHI4_n2Rr-5" value="File" style="swimlane;fontStyle=0;childLayout=stackLayout;horizontal=1;startSize=30;horizontalStack=0;resizeParent=1;resizeParentMax=0;resizeLast=0;collapsible=1;marginBottom=0;" parent="1" vertex="1">
          <mxGeometry x="360" y="605" width="140" height="120" as="geometry">
            <mxRectangle x="340" y="200" width="80" height="30" as="alternateBounds" />
          </mxGeometry>
        </mxCell>
        <mxCell id="BZaMwxJgTfKUHI4_n2Rr-6" value="Name : string" style="text;strokeColor=none;fillColor=none;align=left;verticalAlign=middle;spacingLeft=4;spacingRight=4;overflow=hidden;points=[[0,0.5],[1,0.5]];portConstraint=eastwest;rotatable=0;" parent="BZaMwxJgTfKUHI4_n2Rr-5" vertex="1">
          <mxGeometry y="30" width="140" height="30" as="geometry" />
        </mxCell>
        <mxCell id="BZaMwxJgTfKUHI4_n2Rr-7" value="Size : long" style="text;strokeColor=none;fillColor=none;align=left;verticalAlign=middle;spacingLeft=4;spacingRight=4;overflow=hidden;points=[[0,0.5],[1,0.5]];portConstraint=eastwest;rotatable=0;" parent="BZaMwxJgTfKUHI4_n2Rr-5" vertex="1">
          <mxGeometry y="60" width="140" height="30" as="geometry" />
        </mxCell>
        <mxCell id="BZaMwxJgTfKUHI4_n2Rr-8" value="Attributes : string" style="text;strokeColor=none;fillColor=none;align=left;verticalAlign=middle;spacingLeft=4;spacingRight=4;overflow=hidden;points=[[0,0.5],[1,0.5]];portConstraint=eastwest;rotatable=0;" parent="BZaMwxJgTfKUHI4_n2Rr-5" vertex="1">
          <mxGeometry y="90" width="140" height="30" as="geometry" />
        </mxCell>
        <mxCell id="BZaMwxJgTfKUHI4_n2Rr-9" value="Actions" style="swimlane;fontStyle=0;childLayout=stackLayout;horizontal=1;startSize=30;horizontalStack=0;resizeParent=1;resizeParentMax=0;resizeLast=0;collapsible=1;marginBottom=0;" parent="1" vertex="1">
          <mxGeometry x="460" y="250" width="140" height="150" as="geometry" />
        </mxCell>
        <mxCell id="BZaMwxJgTfKUHI4_n2Rr-10" value="Copy() : void" style="text;strokeColor=none;fillColor=none;align=left;verticalAlign=middle;spacingLeft=4;spacingRight=4;overflow=hidden;points=[[0,0.5],[1,0.5]];portConstraint=eastwest;rotatable=0;" parent="BZaMwxJgTfKUHI4_n2Rr-9" vertex="1">
          <mxGeometry y="30" width="140" height="30" as="geometry" />
        </mxCell>
        <mxCell id="BZaMwxJgTfKUHI4_n2Rr-11" value="Show() : void" style="text;strokeColor=none;fillColor=none;align=left;verticalAlign=middle;spacingLeft=4;spacingRight=4;overflow=hidden;points=[[0,0.5],[1,0.5]];portConstraint=eastwest;rotatable=0;" parent="BZaMwxJgTfKUHI4_n2Rr-9" vertex="1">
          <mxGeometry y="60" width="140" height="30" as="geometry" />
        </mxCell>
        <mxCell id="BZaMwxJgTfKUHI4_n2Rr-12" value="Info() : void" style="text;strokeColor=none;fillColor=none;align=left;verticalAlign=middle;spacingLeft=4;spacingRight=4;overflow=hidden;points=[[0,0.5],[1,0.5]];portConstraint=eastwest;rotatable=0;" parent="BZaMwxJgTfKUHI4_n2Rr-9" vertex="1">
          <mxGeometry y="90" width="140" height="30" as="geometry" />
        </mxCell>
        <mxCell id="BZaMwxJgTfKUHI4_n2Rr-14" value="Remove() : void" style="text;strokeColor=none;fillColor=none;align=left;verticalAlign=middle;spacingLeft=4;spacingRight=4;overflow=hidden;points=[[0,0.5],[1,0.5]];portConstraint=eastwest;rotatable=0;" parent="BZaMwxJgTfKUHI4_n2Rr-9" vertex="1">
          <mxGeometry y="120" width="140" height="30" as="geometry" />
        </mxCell>
        <mxCell id="BZaMwxJgTfKUHI4_n2Rr-16" value="ActionsWithFile" style="swimlane;fontStyle=0;childLayout=stackLayout;horizontal=1;startSize=30;horizontalStack=0;resizeParent=1;resizeParentMax=0;resizeLast=0;collapsible=1;marginBottom=0;" parent="1" vertex="1">
          <mxGeometry x="170" y="420" width="140" height="150" as="geometry" />
        </mxCell>
        <mxCell id="BZaMwxJgTfKUHI4_n2Rr-17" value="Copy : void" style="text;strokeColor=none;fillColor=none;align=left;verticalAlign=middle;spacingLeft=4;spacingRight=4;overflow=hidden;points=[[0,0.5],[1,0.5]];portConstraint=eastwest;rotatable=0;" parent="BZaMwxJgTfKUHI4_n2Rr-16" vertex="1">
          <mxGeometry y="30" width="140" height="30" as="geometry" />
        </mxCell>
        <mxCell id="BZaMwxJgTfKUHI4_n2Rr-18" value="Show : void" style="text;strokeColor=none;fillColor=none;align=left;verticalAlign=middle;spacingLeft=4;spacingRight=4;overflow=hidden;points=[[0,0.5],[1,0.5]];portConstraint=eastwest;rotatable=0;" parent="BZaMwxJgTfKUHI4_n2Rr-16" vertex="1">
          <mxGeometry y="60" width="140" height="30" as="geometry" />
        </mxCell>
        <mxCell id="BZaMwxJgTfKUHI4_n2Rr-19" value="Info : void" style="text;strokeColor=none;fillColor=none;align=left;verticalAlign=middle;spacingLeft=4;spacingRight=4;overflow=hidden;points=[[0,0.5],[1,0.5]];portConstraint=eastwest;rotatable=0;" parent="BZaMwxJgTfKUHI4_n2Rr-16" vertex="1">
          <mxGeometry y="90" width="140" height="30" as="geometry" />
        </mxCell>
        <mxCell id="BZaMwxJgTfKUHI4_n2Rr-20" value="Remove : void" style="text;strokeColor=none;fillColor=none;align=left;verticalAlign=middle;spacingLeft=4;spacingRight=4;overflow=hidden;points=[[0,0.5],[1,0.5]];portConstraint=eastwest;rotatable=0;" parent="BZaMwxJgTfKUHI4_n2Rr-16" vertex="1">
          <mxGeometry y="120" width="140" height="30" as="geometry" />
        </mxCell>
        <mxCell id="BZaMwxJgTfKUHI4_n2Rr-21" value="ActionsWithDir" style="swimlane;fontStyle=0;childLayout=stackLayout;horizontal=1;startSize=30;horizontalStack=0;resizeParent=1;resizeParentMax=0;resizeLast=0;collapsible=1;marginBottom=0;" parent="1" vertex="1">
          <mxGeometry x="758" y="420" width="140" height="150" as="geometry" />
        </mxCell>
        <mxCell id="BZaMwxJgTfKUHI4_n2Rr-22" value="Copy : void" style="text;strokeColor=none;fillColor=none;align=left;verticalAlign=middle;spacingLeft=4;spacingRight=4;overflow=hidden;points=[[0,0.5],[1,0.5]];portConstraint=eastwest;rotatable=0;" parent="BZaMwxJgTfKUHI4_n2Rr-21" vertex="1">
          <mxGeometry y="30" width="140" height="30" as="geometry" />
        </mxCell>
        <mxCell id="BZaMwxJgTfKUHI4_n2Rr-23" value="Show : void" style="text;strokeColor=none;fillColor=none;align=left;verticalAlign=middle;spacingLeft=4;spacingRight=4;overflow=hidden;points=[[0,0.5],[1,0.5]];portConstraint=eastwest;rotatable=0;" parent="BZaMwxJgTfKUHI4_n2Rr-21" vertex="1">
          <mxGeometry y="60" width="140" height="30" as="geometry" />
        </mxCell>
        <mxCell id="BZaMwxJgTfKUHI4_n2Rr-24" value="Info : void" style="text;strokeColor=none;fillColor=none;align=left;verticalAlign=middle;spacingLeft=4;spacingRight=4;overflow=hidden;points=[[0,0.5],[1,0.5]];portConstraint=eastwest;rotatable=0;" parent="BZaMwxJgTfKUHI4_n2Rr-21" vertex="1">
          <mxGeometry y="90" width="140" height="30" as="geometry" />
        </mxCell>
        <mxCell id="BZaMwxJgTfKUHI4_n2Rr-25" value="Remove : void" style="text;strokeColor=none;fillColor=none;align=left;verticalAlign=middle;spacingLeft=4;spacingRight=4;overflow=hidden;points=[[0,0.5],[1,0.5]];portConstraint=eastwest;rotatable=0;" parent="BZaMwxJgTfKUHI4_n2Rr-21" vertex="1">
          <mxGeometry y="120" width="140" height="30" as="geometry" />
        </mxCell>
        <mxCell id="BZaMwxJgTfKUHI4_n2Rr-32" value="" style="endArrow=classic;html=1;rounded=0;exitX=0.5;exitY=0;exitDx=0;exitDy=0;" parent="1" source="BZaMwxJgTfKUHI4_n2Rr-16" edge="1">
          <mxGeometry width="50" height="50" relative="1" as="geometry">
            <mxPoint x="380" y="340" as="sourcePoint" />
            <mxPoint x="500" y="400" as="targetPoint" />
          </mxGeometry>
        </mxCell>
        <mxCell id="BZaMwxJgTfKUHI4_n2Rr-33" value="" style="endArrow=classic;html=1;rounded=0;exitX=0.5;exitY=0;exitDx=0;exitDy=0;entryX=0.714;entryY=1;entryDx=0;entryDy=0;entryPerimeter=0;" parent="1" source="BZaMwxJgTfKUHI4_n2Rr-21" target="BZaMwxJgTfKUHI4_n2Rr-14" edge="1">
          <mxGeometry width="50" height="50" relative="1" as="geometry">
            <mxPoint x="440" y="440" as="sourcePoint" />
            <mxPoint x="520" y="400" as="targetPoint" />
          </mxGeometry>
        </mxCell>
        <mxCell id="BZaMwxJgTfKUHI4_n2Rr-35" value="" style="edgeStyle=orthogonalEdgeStyle;rounded=0;orthogonalLoop=1;jettySize=auto;html=1;exitX=1;exitY=0.5;exitDx=0;exitDy=0;entryX=0;entryY=0.5;entryDx=0;entryDy=0;" parent="1" source="BZaMwxJgTfKUHI4_n2Rr-7" target="BZaMwxJgTfKUHI4_n2Rr-2" edge="1">
          <mxGeometry relative="1" as="geometry" />
        </mxCell>
        <mxCell id="BZaMwxJgTfKUHI4_n2Rr-36" value="" style="endArrow=classic;html=1;rounded=0;exitX=0.446;exitY=0.985;exitDx=0;exitDy=0;exitPerimeter=0;entryX=0;entryY=0.5;entryDx=0;entryDy=0;" parent="1" source="BZaMwxJgTfKUHI4_n2Rr-20" target="BZaMwxJgTfKUHI4_n2Rr-7" edge="1">
          <mxGeometry width="50" height="50" relative="1" as="geometry">
            <mxPoint x="540" y="560" as="sourcePoint" />
            <mxPoint x="590" y="510" as="targetPoint" />
            <Array as="points">
              <mxPoint x="232" y="680" />
            </Array>
          </mxGeometry>
        </mxCell>
        <mxCell id="BZaMwxJgTfKUHI4_n2Rr-37" value="" style="endArrow=classic;html=1;rounded=0;entryX=1;entryY=0.5;entryDx=0;entryDy=0;" parent="1" edge="1">
          <mxGeometry width="50" height="50" relative="1" as="geometry">
            <mxPoint x="825.6520526106017" y="570" as="sourcePoint" />
            <mxPoint x="711" y="680" as="targetPoint" />
            <Array as="points">
              <mxPoint x="826" y="680" />
            </Array>
          </mxGeometry>
        </mxCell>
        <mxCell id="BZaMwxJgTfKUHI4_n2Rr-38" value="Обращается к" style="text;html=1;resizable=0;autosize=1;align=center;verticalAlign=middle;points=[];fillColor=none;strokeColor=none;rounded=0;" parent="1" vertex="1">
          <mxGeometry x="240" y="655" width="90" height="20" as="geometry" />
        </mxCell>
        <mxCell id="BZaMwxJgTfKUHI4_n2Rr-39" value="Обращается к" style="text;html=1;resizable=0;autosize=1;align=center;verticalAlign=middle;points=[];fillColor=none;strokeColor=none;rounded=0;" parent="1" vertex="1">
          <mxGeometry x="720" y="655" width="90" height="20" as="geometry" />
        </mxCell>
        <mxCell id="BZaMwxJgTfKUHI4_n2Rr-40" value="Входит в" style="text;html=1;resizable=0;autosize=1;align=center;verticalAlign=middle;points=[];fillColor=none;strokeColor=none;rounded=0;" parent="1" vertex="1">
          <mxGeometry x="500" y="660" width="60" height="20" as="geometry" />
        </mxCell>
        <mxCell id="BZaMwxJgTfKUHI4_n2Rr-41" value="Наледуется от" style="text;html=1;resizable=0;autosize=1;align=center;verticalAlign=middle;points=[];fillColor=none;strokeColor=none;rounded=0;" parent="1" vertex="1">
          <mxGeometry x="300" y="385" width="100" height="20" as="geometry" />
        </mxCell>
        <mxCell id="BZaMwxJgTfKUHI4_n2Rr-42" value="Наледуется от" style="text;html=1;resizable=0;autosize=1;align=center;verticalAlign=middle;points=[];fillColor=none;strokeColor=none;rounded=0;" parent="1" vertex="1">
          <mxGeometry x="676" y="384" width="100" height="20" as="geometry" />
        </mxCell>
      </root>
    </mxGraphModel>
  </diagram>
  <diagram id="EKxZWgVjQ-mznIdVLFmM" name="Page-2">
    <mxGraphModel dx="782" dy="502" grid="1" gridSize="10" guides="1" tooltips="1" connect="1" arrows="1" fold="1" page="1" pageScale="1" pageWidth="827" pageHeight="1169" math="0" shadow="0">
      <root>
        <mxCell id="y2vocbEIOsdgsBde8Daq-0" />
        <mxCell id="y2vocbEIOsdgsBde8Daq-1" parent="y2vocbEIOsdgsBde8Daq-0" />
        <mxCell id="Xru9xUxPiEoD5FAbkBVG-22" value="" style="endArrow=classic;html=1;rounded=0;fontSize=11;entryX=0.933;entryY=0.05;entryDx=0;entryDy=0;entryPerimeter=0;" edge="1" parent="y2vocbEIOsdgsBde8Daq-1" target="Xru9xUxPiEoD5FAbkBVG-20">
          <mxGeometry width="50" height="50" relative="1" as="geometry">
            <mxPoint x="212" y="203" as="sourcePoint" />
            <mxPoint x="410" y="140" as="targetPoint" />
            <Array as="points">
              <mxPoint x="250" y="203" />
              <mxPoint x="250" y="220" />
            </Array>
          </mxGeometry>
        </mxCell>
        <mxCell id="_LoNqUkvxJgWFyy3twrq-6" value="&lt;u&gt;Главное меню&lt;/u&gt;" style="shape=umlLifeline;perimeter=lifelinePerimeter;whiteSpace=wrap;html=1;container=1;collapsible=0;recursiveResize=0;outlineConnect=0;labelBackgroundColor=default;fontSize=11;" vertex="1" parent="y2vocbEIOsdgsBde8Daq-1">
          <mxGeometry x="162" y="40" width="100" height="300" as="geometry" />
        </mxCell>
        <mxCell id="Xru9xUxPiEoD5FAbkBVG-8" value="1 : Ввод команды" style="text;html=1;strokeColor=none;fillColor=none;align=center;verticalAlign=middle;whiteSpace=wrap;rounded=0;labelBackgroundColor=none;fontSize=11;" vertex="1" parent="_LoNqUkvxJgWFyy3twrq-6">
          <mxGeometry x="-53" y="135" width="94" height="30" as="geometry" />
        </mxCell>
        <mxCell id="Xru9xUxPiEoD5FAbkBVG-10" value="" style="html=1;points=[];perimeter=orthogonalPerimeter;labelBackgroundColor=none;fontSize=11;" vertex="1" parent="y2vocbEIOsdgsBde8Daq-1">
          <mxGeometry x="207" y="151" width="10" height="289" as="geometry" />
        </mxCell>
        <mxCell id="Xru9xUxPiEoD5FAbkBVG-9" value="loop" style="shape=umlFrame;whiteSpace=wrap;html=1;labelBackgroundColor=none;fontSize=11;" vertex="1" parent="y2vocbEIOsdgsBde8Daq-1">
          <mxGeometry x="20" y="385" width="492" height="200" as="geometry" />
        </mxCell>
        <mxCell id="_LoNqUkvxJgWFyy3twrq-4" value="Пользователь" style="text;html=1;strokeColor=none;fillColor=none;align=center;verticalAlign=middle;whiteSpace=wrap;rounded=0;fontSize=11;labelBackgroundColor=default;" vertex="1" parent="y2vocbEIOsdgsBde8Daq-1">
          <mxGeometry x="71" y="61" width="60" height="30" as="geometry" />
        </mxCell>
        <mxCell id="Xru9xUxPiEoD5FAbkBVG-6" value="" style="endArrow=classic;html=1;rounded=0;fontSize=11;exitX=1.333;exitY=0.463;exitDx=0;exitDy=0;exitPerimeter=0;" edge="1" parent="y2vocbEIOsdgsBde8Daq-1">
          <mxGeometry width="50" height="50" relative="1" as="geometry">
            <mxPoint x="101.33000000000004" y="202.03999999999996" as="sourcePoint" />
            <mxPoint x="206.5" y="202.03999999999996" as="targetPoint" />
          </mxGeometry>
        </mxCell>
        <mxCell id="Xru9xUxPiEoD5FAbkBVG-11" value=":Object" style="shape=umlLifeline;perimeter=lifelinePerimeter;whiteSpace=wrap;html=1;container=1;collapsible=0;recursiveResize=0;outlineConnect=0;labelBackgroundColor=none;fontSize=11;" vertex="1" parent="y2vocbEIOsdgsBde8Daq-1">
          <mxGeometry x="308" y="40" width="100" height="300" as="geometry" />
        </mxCell>
        <mxCell id="Xru9xUxPiEoD5FAbkBVG-13" value="" style="endArrow=classic;html=1;rounded=0;fontSize=11;fontStyle=1" edge="1" parent="Xru9xUxPiEoD5FAbkBVG-11">
          <mxGeometry width="50" height="50" relative="1" as="geometry">
            <mxPoint x="-89" y="133" as="sourcePoint" />
            <mxPoint x="44" y="133" as="targetPoint" />
          </mxGeometry>
        </mxCell>
        <mxCell id="Xru9xUxPiEoD5FAbkBVG-14" value="" style="html=1;points=[];perimeter=orthogonalPerimeter;labelBackgroundColor=none;fontSize=11;" vertex="1" parent="Xru9xUxPiEoD5FAbkBVG-11">
          <mxGeometry x="45" y="122" width="10" height="30" as="geometry" />
        </mxCell>
        <mxCell id="Xru9xUxPiEoD5FAbkBVG-16" value="" style="endArrow=classic;html=1;rounded=0;fontSize=11;dashed=1;" edge="1" parent="y2vocbEIOsdgsBde8Daq-1" source="Xru9xUxPiEoD5FAbkBVG-11">
          <mxGeometry width="50" height="50" relative="1" as="geometry">
            <mxPoint x="326.5" y="192" as="sourcePoint" />
            <mxPoint x="217" y="192" as="targetPoint" />
          </mxGeometry>
        </mxCell>
        <mxCell id="slXqn-xckWx8WITnXciu-1" value="" style="shape=umlLifeline;participant=umlActor;perimeter=lifelinePerimeter;whiteSpace=wrap;html=1;container=1;collapsible=0;recursiveResize=0;verticalAlign=top;spacingTop=36;outlineConnect=0;" vertex="1" parent="y2vocbEIOsdgsBde8Daq-1">
          <mxGeometry x="90" y="31" width="20" height="320" as="geometry" />
        </mxCell>
        <mxCell id="Xru9xUxPiEoD5FAbkBVG-1" value="" style="html=1;points=[];perimeter=orthogonalPerimeter;labelBackgroundColor=default;fontSize=11;" vertex="1" parent="slXqn-xckWx8WITnXciu-1">
          <mxGeometry x="6" y="125" width="10" height="80" as="geometry" />
        </mxCell>
        <mxCell id="Xru9xUxPiEoD5FAbkBVG-20" value="" style="html=1;points=[];perimeter=orthogonalPerimeter;labelBackgroundColor=none;fontSize=11;" vertex="1" parent="y2vocbEIOsdgsBde8Daq-1">
          <mxGeometry x="214" y="209" width="10" height="221" as="geometry" />
        </mxCell>
        <mxCell id="Xru9xUxPiEoD5FAbkBVG-25" value="" style="html=1;points=[];perimeter=orthogonalPerimeter;labelBackgroundColor=none;fontSize=11;" vertex="1" parent="y2vocbEIOsdgsBde8Daq-1">
          <mxGeometry x="219" y="249" width="10" height="181" as="geometry" />
        </mxCell>
        <mxCell id="Xru9xUxPiEoD5FAbkBVG-26" value="if(Команда не найдена)&lt;br&gt;1.2.1 : Вывод сообщения &quot;Попробуйте снова&quot;" style="text;html=1;strokeColor=none;fillColor=none;align=center;verticalAlign=middle;whiteSpace=wrap;rounded=0;labelBackgroundColor=none;fontSize=11;" vertex="1" parent="y2vocbEIOsdgsBde8Daq-1">
          <mxGeometry x="230" y="259.5" width="120" height="30" as="geometry" />
        </mxCell>
        <mxCell id="Xru9xUxPiEoD5FAbkBVG-12" value="1.1 : Получение команд" style="text;html=1;strokeColor=none;fillColor=none;align=center;verticalAlign=middle;whiteSpace=wrap;rounded=0;labelBackgroundColor=none;fontSize=11;" vertex="1" parent="y2vocbEIOsdgsBde8Daq-1">
          <mxGeometry x="218" y="146" width="132" height="30" as="geometry" />
        </mxCell>
        <mxCell id="Xru9xUxPiEoD5FAbkBVG-21" value="1.2 : Проверка введенных данных" style="text;html=1;strokeColor=none;fillColor=none;align=center;verticalAlign=middle;whiteSpace=wrap;rounded=0;labelBackgroundColor=none;fontSize=11;" vertex="1" parent="y2vocbEIOsdgsBde8Daq-1">
          <mxGeometry x="253" y="192" width="100" height="30" as="geometry" />
        </mxCell>
        <mxCell id="Xru9xUxPiEoD5FAbkBVG-29" value="" style="html=1;points=[];perimeter=orthogonalPerimeter;labelBackgroundColor=none;fontSize=11;" vertex="1" parent="y2vocbEIOsdgsBde8Daq-1">
          <mxGeometry x="224" y="312" width="10" height="131" as="geometry" />
        </mxCell>
        <mxCell id="Xru9xUxPiEoD5FAbkBVG-30" value="" style="endArrow=classic;html=1;rounded=0;fontSize=11;exitX=1.167;exitY=0.326;exitDx=0;exitDy=0;exitPerimeter=0;entryX=1.267;entryY=0.122;entryDx=0;entryDy=0;entryPerimeter=0;" edge="1" parent="y2vocbEIOsdgsBde8Daq-1">
          <mxGeometry width="50" height="50" relative="1" as="geometry">
            <mxPoint x="229.66999999999996" y="308.006" as="sourcePoint" />
            <mxPoint x="235.66999999999996" y="327.98199999999997" as="targetPoint" />
            <Array as="points">
              <mxPoint x="259" y="308" />
              <mxPoint x="259" y="328" />
            </Array>
          </mxGeometry>
        </mxCell>
      </root>
    </mxGraphModel>
  </diagram>
  <diagram id="a0BHo7UVrTcMOhtOggxp" name="Page-3">
    <mxGraphModel dx="1203" dy="772" grid="1" gridSize="10" guides="1" tooltips="1" connect="1" arrows="1" fold="1" page="1" pageScale="1" pageWidth="827" pageHeight="1169" math="0" shadow="0">
      <root>
        <mxCell id="xqin2msSDBI_EzptqLgt-0" />
        <mxCell id="xqin2msSDBI_EzptqLgt-1" parent="xqin2msSDBI_EzptqLgt-0" />
        <mxCell id="xqin2msSDBI_EzptqLgt-17" value="" style="endArrow=none;html=1;rounded=0;entryX=0.043;entryY=0.5;entryDx=0;entryDy=0;entryPerimeter=0;endFill=0;" edge="1" parent="xqin2msSDBI_EzptqLgt-1" source="xqin2msSDBI_EzptqLgt-2" target="xqin2msSDBI_EzptqLgt-6">
          <mxGeometry width="50" height="50" relative="1" as="geometry">
            <mxPoint x="330" y="310" as="sourcePoint" />
            <mxPoint x="270" y="255" as="targetPoint" />
          </mxGeometry>
        </mxCell>
        <mxCell id="xqin2msSDBI_EzptqLgt-2" value="Пользователь" style="shape=umlActor;verticalLabelPosition=bottom;verticalAlign=top;html=1;" vertex="1" parent="xqin2msSDBI_EzptqLgt-1">
          <mxGeometry x="130" y="225" width="30" height="60" as="geometry" />
        </mxCell>
        <mxCell id="xqin2msSDBI_EzptqLgt-5" value="Управление ресурсами файловой системы" style="ellipse;whiteSpace=wrap;html=1;" vertex="1" parent="xqin2msSDBI_EzptqLgt-1">
          <mxGeometry x="274" y="79" width="140" height="70" as="geometry" />
        </mxCell>
        <mxCell id="xqin2msSDBI_EzptqLgt-6" value="Просмотр ресурсов файловой системы" style="ellipse;whiteSpace=wrap;html=1;" vertex="1" parent="xqin2msSDBI_EzptqLgt-1">
          <mxGeometry x="274" y="220" width="140" height="70" as="geometry" />
        </mxCell>
        <mxCell id="xqin2msSDBI_EzptqLgt-7" value="Открытие файлов" style="ellipse;whiteSpace=wrap;html=1;" vertex="1" parent="xqin2msSDBI_EzptqLgt-1">
          <mxGeometry x="274" y="360" width="140" height="70" as="geometry" />
        </mxCell>
        <mxCell id="xqin2msSDBI_EzptqLgt-9" value="Правка" style="ellipse;whiteSpace=wrap;html=1;" vertex="1" parent="xqin2msSDBI_EzptqLgt-1">
          <mxGeometry x="500" y="70" width="110" height="33" as="geometry" />
        </mxCell>
        <mxCell id="xqin2msSDBI_EzptqLgt-10" value="Удаление" style="ellipse;whiteSpace=wrap;html=1;" vertex="1" parent="xqin2msSDBI_EzptqLgt-1">
          <mxGeometry x="465" y="124" width="110" height="33" as="geometry" />
        </mxCell>
        <mxCell id="xqin2msSDBI_EzptqLgt-11" value="Добавление" style="ellipse;whiteSpace=wrap;html=1;" vertex="1" parent="xqin2msSDBI_EzptqLgt-1">
          <mxGeometry x="414" y="20" width="110" height="33" as="geometry" />
        </mxCell>
        <mxCell id="xqin2msSDBI_EzptqLgt-12" value="Просмотр содержимого ресурсов" style="ellipse;whiteSpace=wrap;html=1;" vertex="1" parent="xqin2msSDBI_EzptqLgt-1">
          <mxGeometry x="467" y="190" width="150" height="60" as="geometry" />
        </mxCell>
        <mxCell id="xqin2msSDBI_EzptqLgt-13" value="Просмотр списка файлов" style="ellipse;whiteSpace=wrap;html=1;" vertex="1" parent="xqin2msSDBI_EzptqLgt-1">
          <mxGeometry x="469" y="270" width="150" height="60" as="geometry" />
        </mxCell>
        <mxCell id="xqin2msSDBI_EzptqLgt-14" value="Запуск приложения для открытия файла" style="ellipse;whiteSpace=wrap;html=1;" vertex="1" parent="xqin2msSDBI_EzptqLgt-1">
          <mxGeometry x="469" y="365" width="150" height="60" as="geometry" />
        </mxCell>
        <mxCell id="xqin2msSDBI_EzptqLgt-16" value="" style="endArrow=none;html=1;rounded=0;entryX=0;entryY=0.5;entryDx=0;entryDy=0;endFill=0;" edge="1" parent="xqin2msSDBI_EzptqLgt-1" target="xqin2msSDBI_EzptqLgt-5">
          <mxGeometry width="50" height="50" relative="1" as="geometry">
            <mxPoint x="160" y="240" as="sourcePoint" />
            <mxPoint x="210" y="190" as="targetPoint" />
          </mxGeometry>
        </mxCell>
        <mxCell id="xqin2msSDBI_EzptqLgt-18" value="" style="endArrow=none;html=1;rounded=0;exitX=0;exitY=0.5;exitDx=0;exitDy=0;" edge="1" parent="xqin2msSDBI_EzptqLgt-1" source="xqin2msSDBI_EzptqLgt-7" target="xqin2msSDBI_EzptqLgt-2">
          <mxGeometry width="50" height="50" relative="1" as="geometry">
            <mxPoint x="240" y="280" as="sourcePoint" />
            <mxPoint x="380" y="260" as="targetPoint" />
          </mxGeometry>
        </mxCell>
        <mxCell id="xqin2msSDBI_EzptqLgt-20" value="" style="endArrow=classic;html=1;rounded=0;exitX=1;exitY=0;exitDx=0;exitDy=0;entryX=0.5;entryY=1;entryDx=0;entryDy=0;dashed=1;endFill=1;" edge="1" parent="xqin2msSDBI_EzptqLgt-1" source="xqin2msSDBI_EzptqLgt-5" target="xqin2msSDBI_EzptqLgt-11">
          <mxGeometry width="50" height="50" relative="1" as="geometry">
            <mxPoint x="330" y="230" as="sourcePoint" />
            <mxPoint x="380" y="180" as="targetPoint" />
          </mxGeometry>
        </mxCell>
        <mxCell id="xqin2msSDBI_EzptqLgt-21" value="" style="endArrow=classic;html=1;rounded=0;exitX=1;exitY=0.5;exitDx=0;exitDy=0;entryX=0;entryY=0.5;entryDx=0;entryDy=0;dashed=1;endFill=1;" edge="1" parent="xqin2msSDBI_EzptqLgt-1" source="xqin2msSDBI_EzptqLgt-5" target="xqin2msSDBI_EzptqLgt-9">
          <mxGeometry width="50" height="50" relative="1" as="geometry">
            <mxPoint x="403.4974746830583" y="99.25126265847086" as="sourcePoint" />
            <mxPoint x="479" y="63" as="targetPoint" />
          </mxGeometry>
        </mxCell>
        <mxCell id="xqin2msSDBI_EzptqLgt-22" value="" style="endArrow=classic;html=1;rounded=0;exitX=1;exitY=1;exitDx=0;exitDy=0;entryX=0;entryY=0.5;entryDx=0;entryDy=0;dashed=1;endFill=1;" edge="1" parent="xqin2msSDBI_EzptqLgt-1" source="xqin2msSDBI_EzptqLgt-5" target="xqin2msSDBI_EzptqLgt-10">
          <mxGeometry width="50" height="50" relative="1" as="geometry">
            <mxPoint x="413.4974746830583" y="109.25126265847086" as="sourcePoint" />
            <mxPoint x="489" y="73" as="targetPoint" />
          </mxGeometry>
        </mxCell>
        <mxCell id="xqin2msSDBI_EzptqLgt-23" value="" style="endArrow=classic;html=1;rounded=0;exitX=1;exitY=0.5;exitDx=0;exitDy=0;entryX=0;entryY=0.5;entryDx=0;entryDy=0;dashed=1;endFill=1;" edge="1" parent="xqin2msSDBI_EzptqLgt-1" source="xqin2msSDBI_EzptqLgt-6" target="xqin2msSDBI_EzptqLgt-12">
          <mxGeometry width="50" height="50" relative="1" as="geometry">
            <mxPoint x="423.4974746830583" y="119.25126265847086" as="sourcePoint" />
            <mxPoint x="499" y="83" as="targetPoint" />
          </mxGeometry>
        </mxCell>
        <mxCell id="xqin2msSDBI_EzptqLgt-24" value="" style="endArrow=classic;html=1;rounded=0;exitX=1;exitY=1;exitDx=0;exitDy=0;entryX=0;entryY=0.5;entryDx=0;entryDy=0;dashed=1;endFill=1;" edge="1" parent="xqin2msSDBI_EzptqLgt-1" source="xqin2msSDBI_EzptqLgt-6" target="xqin2msSDBI_EzptqLgt-13">
          <mxGeometry width="50" height="50" relative="1" as="geometry">
            <mxPoint x="433.4974746830583" y="129.25126265847086" as="sourcePoint" />
            <mxPoint x="509" y="93" as="targetPoint" />
          </mxGeometry>
        </mxCell>
        <mxCell id="xqin2msSDBI_EzptqLgt-25" value="" style="endArrow=classic;html=1;rounded=0;exitX=1;exitY=0.5;exitDx=0;exitDy=0;entryX=0;entryY=0.5;entryDx=0;entryDy=0;dashed=1;endFill=1;" edge="1" parent="xqin2msSDBI_EzptqLgt-1" source="xqin2msSDBI_EzptqLgt-7" target="xqin2msSDBI_EzptqLgt-14">
          <mxGeometry width="50" height="50" relative="1" as="geometry">
            <mxPoint x="443.4974746830583" y="139.25126265847086" as="sourcePoint" />
            <mxPoint x="519" y="103" as="targetPoint" />
          </mxGeometry>
        </mxCell>
        <mxCell id="w5zorktANyzJKhht0tpQ-0" value="&quot;include&quot;" style="text;html=1;strokeColor=none;fillColor=none;align=center;verticalAlign=middle;whiteSpace=wrap;rounded=0;fontSize=11;" vertex="1" parent="xqin2msSDBI_EzptqLgt-1">
          <mxGeometry x="384" y="49" width="60" height="30" as="geometry" />
        </mxCell>
        <mxCell id="w5zorktANyzJKhht0tpQ-1" value="&quot;include&quot;" style="text;html=1;strokeColor=none;fillColor=none;align=center;verticalAlign=middle;whiteSpace=wrap;rounded=0;fontSize=11;" vertex="1" parent="xqin2msSDBI_EzptqLgt-1">
          <mxGeometry x="418" y="76" width="60" height="30" as="geometry" />
        </mxCell>
        <mxCell id="w5zorktANyzJKhht0tpQ-2" value="&quot;include&quot;" style="text;html=1;strokeColor=none;fillColor=none;align=center;verticalAlign=middle;whiteSpace=wrap;rounded=0;fontSize=11;" vertex="1" parent="xqin2msSDBI_EzptqLgt-1">
          <mxGeometry x="401" y="118" width="60" height="30" as="geometry" />
        </mxCell>
        <mxCell id="w5zorktANyzJKhht0tpQ-3" value="&quot;include&quot;" style="text;html=1;strokeColor=none;fillColor=none;align=center;verticalAlign=middle;whiteSpace=wrap;rounded=0;fontSize=11;" vertex="1" parent="xqin2msSDBI_EzptqLgt-1">
          <mxGeometry x="397" y="210" width="60" height="30" as="geometry" />
        </mxCell>
        <mxCell id="w5zorktANyzJKhht0tpQ-4" value="&quot;include&quot;" style="text;html=1;strokeColor=none;fillColor=none;align=center;verticalAlign=middle;whiteSpace=wrap;rounded=0;fontSize=11;" vertex="1" parent="xqin2msSDBI_EzptqLgt-1">
          <mxGeometry x="409" y="265" width="60" height="30" as="geometry" />
        </mxCell>
        <mxCell id="w5zorktANyzJKhht0tpQ-5" value="&quot;include&quot;" style="text;html=1;strokeColor=none;fillColor=none;align=center;verticalAlign=middle;whiteSpace=wrap;rounded=0;fontSize=11;" vertex="1" parent="xqin2msSDBI_EzptqLgt-1">
          <mxGeometry x="408" y="371" width="60" height="30" as="geometry" />
        </mxCell>
      </root>
    </mxGraphModel>
  </diagram>
</mxfile>
